<?xml version="1.0" encoding="utf-8"?>
<!-- Generator: Adobe Illustrator 26.1.0, SVG Export Plug-In . SVG Version: 6.00 Build 0)  -->
<svg version="1.1" xmlns="http://www.w3.org/2000/svg" xmlns:xlink="http://www.w3.org/1999/xlink" x="0px" y="0px"
	 viewBox="0 0 243.36 226.55" style="enable-background:new 0 0 243.36 226.55;" xml:space="preserve">
<style type="text/css">
	.st0{fill:#2D2B23;stroke:#9D9974;stroke-miterlimit:10;}
	.st1{fill:#847944;stroke:#9D9974;stroke-miterlimit:10;}
	.st2{display:none;}
	.st3{display:inline;fill:#F9F9F7;stroke:#FCFCFA;stroke-miterlimit:10;}
	.st4{fill:#605D49;}
	.st5{fill:#F9F9F7;stroke:#FFFFFD;stroke-miterlimit:10;}
	.st6{fill:#D6C872;stroke:#9D9974;stroke-miterlimit:10;}
	.st7{fill:#605D49;stroke:#FFFFFD;stroke-miterlimit:10;}
	.st8{fill:none;}
	.st9{font-family:'CopperplateGothic-Light';}
	.st10{font-size:12px;}
	.st11{fill:#605D49;stroke:#232323;stroke-width:0.5;stroke-miterlimit:10;}
	.st12{fill:#FCFCFA;stroke:#FCFCFC;stroke-width:0.5;stroke-miterlimit:10;}
</style>
<g id="Layer_1">
</g>
<g id="Layer_9">
	<g id="Layer_2">
		<path class="st0" d="M199.34,169c0,0-33.19,10.76-45.15,10.92c-8.68,0.12-99.36-15.11-99.36-30.93L54.72,36.04
			c0-11.34,81.68-24.79,89.33-25.4h7.45c8.4,0,88.79,13.8,88.79,27.78l0,108.35C242.18,157.94,219.85,162.7,199.34,169z"/>
	</g>
</g>
<g id="Layer_4">
	<path class="st1" d="M192.21,163.83c0,0-30.54,9.65-41.55,9.79c-7.99,0.1-91.43-13.55-91.43-27.73L59.12,44.64
		c0-10.16,75.17-22.23,82.21-22.77h6.85c7.73,0,81.71,12.37,81.71,24.9v97.13C231.63,153.92,211.08,158.18,192.21,163.83z"/>
</g>
<g id="Layer_10" class="st2">
	<path class="st3" d="M133.38,145.92c0,34.3,5.38,77.4,6.78,85.79c1.14,6.88-1.92,14.58,19.46,15.4c10.28,0.39,34.91,0,45.28-1.94
		c8.45-1.58,0,13.08,0,13.08s-19.01,3.32-32.58,3.76c-9.04,0.29-18.07-0.15-37.98-5.29c-10.98-2.84-10.91-23.81-11.85-46.18
		c-0.93-22.37,0-58.65,0-58.65l0.21-5.96H133.38z"/>
</g>
<g id="Layer_5">
	<polygon class="st4" points="106.66,142.68 106.66,37.92 85.68,37.92 85.68,155.01 86.13,155.01 86.13,156 180.32,156 
		180.32,142.68 	"/>
</g>
<g id="Layer_6">
	<polygon class="st5" points="106,139.88 106,37.92 85.68,37.92 85.68,151.87 86.12,151.87 86.12,152.84 177.32,152.84 
		177.32,139.88 	"/>
	<g>
		<polygon class="st6" points="65.26,180.36 60.31,180.36 60.31,208.15 60.41,208.15 60.41,208.39 82.65,208.39 82.65,205.23 
			65.26,205.23 		"/>
		<path class="st6" d="M83.24,203.45c-6.93,0.31-10.54-4.64-10.46-10.57c0.1-7.15,4.21-11.49,10.46-11.29
			c7.13,0.23,8.36,5.94,8.36,5.94l1.61-0.02c0,0-1.92-7.39-10.9-7.41c-6.01-0.01-13.22,5.03-13.22,12.33
			c0,10.39,6.85,12.86,13.45,12.8c6.57-0.06,9.42-3.71,9.42-3.71s-0.23-0.55-0.72-0.97C88.63,203.12,86.22,203.31,83.24,203.45z"/>
	</g>
</g>
<g id="Layer_7">
	<path class="st7" d="M212.31,125.52c-11.03,11.14-21.24,11.99-33.82,12.57c-29.32,1.34-44.56-20.11-44.21-45.8
		c0.43-30.99,18.84-52.82,45.27-51.96c30.13,0.99,34.28,28.78,34.28,28.78l6.82-0.07c0,0-8.1-32.03-46.09-32.12
		c-25.39-0.06-54.81,21.39-54.81,50.39c0,45.02,27.88,58.73,55.78,58.48c27.77-0.25,39.83-16.06,39.83-16.06
		S214.4,127.34,212.31,125.52"/>
</g>
<g id="Layer_12">
	<rect x="67.87" y="179.03" class="st8" width="192.89" height="47.52"/>
	<text transform="matrix(1 0 0 1 98.1449 206.0732)" class="st9 st10">CONSULTORES S.C.</text>
	<line class="st11" x1="87.52" y1="208.39" x2="236.4" y2="208.39"/>
</g>
<g id="Layer_3">
</g>
<g id="Layer_8">
	<path class="st12" d="M212.32,123.22c-11.03,10.86-21.23,11.69-33.8,12.25c-29.3,1.31-44.54-19.61-44.19-44.66
		c0.43-30.23,17.77-48.55,44.19-47.71c30.12,0.96,35.31,25.11,35.31,25.11l6.82-0.07c0,0-8.09-31.24-46.06-31.32
		c-25.38-0.06-55.84,21.24-55.84,52.09c0,43.9,28.92,54.32,56.81,54.07c27.76-0.24,39.81-15.66,39.81-15.66
		S214.41,125,212.32,123.22"/>
	<rect id="_x3C_Slice_x3E_" x="209.2" y="135.56" class="st8" width="8" height="4"/>
</g>
<g id="Layer_11">
</g>
</svg>
